<svg width="34" height="34" viewBox="0 0 34 34" fill="none" xmlns="http://www.w3.org/2000/svg">
<circle cx="16.6204" cy="17.4358" r="15.804" stroke="#1A7000" stroke-width="1.5"/>
<path d="M21.8477 18.1858C22.2619 18.1858 22.5977 17.85 22.5977 17.4358C22.5977 17.0216 22.2619 16.6858 21.8477 16.6858V18.1858ZM10.8624 16.9055C10.5695 17.1984 10.5695 17.6732 10.8624 17.9661L15.6354 22.7391C15.9283 23.032 16.4032 23.032 16.6961 22.7391C16.989 22.4462 16.989 21.9713 16.6961 21.6784L12.4534 17.4358L16.6961 13.1932C16.989 12.9003 16.989 12.4254 16.6961 12.1325C16.4032 11.8396 15.9283 11.8396 15.6354 12.1325L10.8624 16.9055ZM21.8477 16.6858H11.3928V18.1858H21.8477V16.6858Z" fill="#1A7000"/>
</svg>
