<svg width="23" height="23" viewBox="0 0 23 23" fill="none" xmlns="http://www.w3.org/2000/svg">
<path fill-rule="evenodd" clip-rule="evenodd" d="M11.5118 22.5282C17.7299 22.5282 22.7706 17.4874 22.7706 11.2693C22.7706 5.05125 17.7299 0.010498 11.5118 0.010498C5.29368 0.010498 0.25293 5.05125 0.25293 11.2693C0.25293 17.4874 5.29368 22.5282 11.5118 22.5282ZM6.64333 10.4937L16.1567 6.82518C16.5908 6.6288 17.0104 6.92981 16.8446 7.59462L15.2247 15.2289C15.1115 15.7719 14.7847 15.9007 14.3297 15.6501L11.862 13.8274L10.6756 14.981C10.6712 14.9853 10.6668 14.9895 10.6624 14.9938C10.5301 15.1218 10.4204 15.2278 10.1815 15.2278L10.3499 12.7103L10.3489 12.7097H10.3499L14.9285 8.57761C15.1292 8.39947 14.885 8.31201 14.6178 8.47459L8.96667 12.0401L6.52421 11.2782C5.99784 11.1167 5.99408 10.7545 6.64333 10.4937Z" fill="black"/>
</svg>
