<svg width="25" height="24" viewBox="0 0 25 24" fill="none" xmlns="http://www.w3.org/2000/svg">
<path d="M12.4284 0.611816C5.85336 0.611816 0.770508 5.42654 0.770508 11.92C0.770508 15.3125 2.1578 18.2619 4.43109 20.2787C4.61762 20.4303 4.7342 20.6868 4.74586 20.9432L4.80415 23.0183C4.85078 23.6828 5.51528 24.1142 6.12149 23.8461L8.42976 22.8318C8.62795 22.7619 8.84945 22.7269 9.04763 22.7619C10.0968 23.0766 11.2626 23.2282 12.4284 23.2282C19.0035 23.2282 24.0863 18.4135 24.0863 11.92C24.0863 5.42654 19.0035 0.611816 12.4284 0.611816ZM19.4232 9.30863L16.0074 14.7529C15.4595 15.6039 14.2937 15.8254 13.4776 15.1842L10.7497 13.1674C10.6286 13.0766 10.4813 13.0275 10.33 13.0275C10.1787 13.0275 10.0314 13.0766 9.91032 13.1674L6.22641 15.9653C5.73678 16.35 5.0956 15.7671 5.43368 15.2308L8.84945 9.7866C9.39737 8.93557 10.5632 8.71407 11.3792 9.32028L14.1072 11.3721C14.2282 11.4629 14.3755 11.512 14.5269 11.512C14.6782 11.512 14.8255 11.4629 14.9465 11.3721L18.6304 8.57418C19.1201 8.18947 19.7613 8.77236 19.4232 9.30863Z" fill="black"/>
</svg>
